<?xml version="1.0" encoding="utf-8"?>
<!-- Generator: Adobe Illustrator 25.4.1, SVG Export Plug-In . SVG Version: 6.00 Build 0)  -->
<svg version="1.1" id="Layer_1" xmlns="http://www.w3.org/2000/svg" xmlns:xlink="http://www.w3.org/1999/xlink" x="0px" y="0px"
	 viewBox="0 0 2807 1604" style="enable-background:new 0 0 2807 1604;" xml:space="preserve">
<style type="text/css">
	.st0{fill:#FFFAF3;}
	.st1{fill:#CD7F2E;}
</style>
<g>
	<rect class="st0" width="2806.2" height="1603.6"/>
	<g>
		<g>
			<path class="st1" d="M1902.5,802.6c-9.7,2.4-10,12-17,22.1c-10.3,15-5.5,25,2.9,25.4c8.4,0.5,13.2-9.9,21.8-11.6c0,0,0.1,0,0.1,0
				c0,0,0.1,0,0.1,0c8.5-2,17.2,5.4,24.6,1.6c7.4-3.9,7.6-15-7.9-24.4C1916.5,809.4,1912.3,800.8,1902.5,802.6z"/>
			<path class="st1" d="M1877.5,800.5c7,6.2,9.4,14.9,5.4,19.4c-4,4.5-12.9,3.1-19.9-3.1c-7-6.2-9.4-14.9-5.4-19.4
				C1861.5,792.8,1870.5,794.2,1877.5,800.5z"/>
			<path class="st1" d="M1924.4,790.3c-3.8,8.6-2.4,17.5,3.1,19.9c5.5,2.4,13.1-2.5,16.9-11.1c3.8-8.6,2.4-17.5-3.1-19.9
				C1935.8,776.8,1928.2,781.8,1924.4,790.3z"/>
			<path class="st1" d="M1894.4,777.3c3.7,9.1,2,18.5-3.9,20.9c-5.9,2.4-13.7-3-17.4-12.2c-3.7-9.1-2-18.5,3.9-20.9
				C1882.8,762.7,1890.7,768.2,1894.4,777.3z"/>
			<path class="st1" d="M1899.4,776.2c0.4,9.9,5.8,17.7,12.2,17.4c6.4-0.2,11.2-8.4,10.9-18.3c-0.4-9.9-5.8-17.7-12.2-17.5
				C1904,758.2,1899.1,766.4,1899.4,776.2z"/>
		</g>
		<g>
			<path class="st1" d="M2704.4,1483.2c-13.4-2.6-19.3,9.2-33.9,17.9c-21.4,12.8-21.3,28-11.1,33.4c10.2,5.4,22.2-4.8,33.9-1.9
				c0,0,0.1,0,0.1,0c0,0,0.1,0,0.1,0c11.8,2.4,18.3,16.7,29.9,16.1c11.5-0.6,18.1-14.3,4.1-35
				C2718,1499.7,2717.7,1486.5,2704.4,1483.2z"/>
			<path class="st1" d="M2674.4,1466.1c5.1,11.8,3.1,24.1-4.5,27.4c-7.6,3.3-17.9-3.6-23.1-15.4c-5.1-11.8-3.1-24.1,4.5-27.4
				C2658.9,1447.4,2669.2,1454.3,2674.4,1466.1z"/>
			<path class="st1" d="M2738.9,1480.4c-9.7,8.5-13,20.5-7.5,26.7c5.5,6.2,17.8,4.4,27.4-4.2c9.7-8.5,13-20.5,7.5-26.7
				C2760.8,1470,2748.5,1471.9,2738.9,1480.4z"/>
			<path class="st1" d="M2708.8,1446.9c-0.6,13.6-8.1,24.3-16.9,23.9c-8.7-0.4-15.4-11.7-14.8-25.2c0.6-13.6,8.1-24.3,16.9-23.9
				C2702.8,1422,2709.4,1433.3,2708.8,1446.9z"/>
			<path class="st1" d="M2715.8,1448.4c-5.2,12.5-2.9,25.4,5.2,28.8c8.1,3.4,18.9-4.1,24.1-16.6c5.2-12.5,2.9-25.4-5.2-28.8
				C2731.8,1428.5,2721,1435.9,2715.8,1448.4z"/>
		</g>
		<g>
			<path class="st1" d="M116.9,1442.8c-14.2-5-22.5,6.9-39.7,14c-25.3,10.5-27.6,27-17.4,34.6c10.2,7.5,24.8-1.6,37.1,3.3
				c0,0,0.1,0,0.1,0c0,0,0.1,0,0.1,0c12.5,4.5,17.3,21.1,29.9,22.3c12.6,1.2,22-12.7,10.1-37.3
				C129.1,1463,130.9,1448.6,116.9,1442.8z"/>
			<path class="st1" d="M87,1419.5c3.7,13.7-0.5,26.7-9.3,29c-8.8,2.4-18.9-6.8-22.6-20.4c-3.7-13.7,0.5-26.7,9.3-29
				C73.2,1396.7,83.3,1405.8,87,1419.5z"/>
			<path class="st1" d="M154.8,1445.4c-11.9,7.7-17.4,20.2-12.5,27.8c5,7.6,18.6,7.6,30.5-0.1c11.9-7.7,17.4-20.2,12.5-27.8
				C180.3,1437.6,166.7,1437.7,154.8,1445.4z"/>
			<path class="st1" d="M127.6,1404.1c-2.8,14.7-12.7,25.1-22.2,23.3c-9.4-1.8-14.8-15.1-12-29.8c2.8-14.7,12.7-25.1,22.2-23.3
				C125,1376.2,130.4,1389.5,127.6,1404.1z"/>
			<path class="st1" d="M134.8,1406.9c-7.7,12.8-7.2,27.2,1,32.1c8.2,5,21.2-1.4,28.8-14.2c7.7-12.8,7.2-27.2-1-32.1
				C155.4,1387.8,142.5,1394.1,134.8,1406.9z"/>
		</g>
		<g>
			<path class="st1" d="M2690.9,137.7c-10.8-9.1-22-1.3-39.5-0.8c-25.6,0.8-33.1,14.6-26.6,24.6c6.5,10,22.3,6.7,31.5,15.1
				c0,0,0.1,0.1,0.1,0.1c0,0,0.1,0.1,0.1,0.1c9.5,8,8.2,24.2,18.9,29.4c10.7,5.2,23.5-3.9,21.1-29.4
				C2694.9,159.3,2701.2,147.3,2690.9,137.7z"/>
			<path class="st1" d="M2672.3,107.4c-1.3,13.2-9.2,23.2-17.7,22.4c-8.5-0.8-14.4-12.2-13.1-25.3c1.3-13.2,9.2-23.2,17.7-22.4
				C2667.7,82.8,2673.6,94.2,2672.3,107.4z"/>
			<path class="st1" d="M2723.3,152.4c-12.9,2.9-21.9,11.9-20.1,20.3c1.8,8.3,13.8,12.8,26.8,9.9c12.9-2.9,21.9-11.9,20.1-20.3
				C2748.2,154,2736.2,149.5,2723.3,152.4z"/>
			<path class="st1" d="M2712.9,107.3c-7.3,11.9-19.4,17.8-27.1,13.1c-7.7-4.7-8-18.2-0.7-30.1c7.3-11.9,19.4-17.8,27.1-13.1
				C2719.9,81.9,2720.2,95.3,2712.9,107.3z"/>
			<path class="st1" d="M2718.4,112.1c-10.9,8.7-15.3,21.4-9.7,28.5c5.6,7.1,19,5.7,29.9-2.9c10.9-8.7,15.3-21.4,9.7-28.5
				C2742.7,102.1,2729.3,103.4,2718.4,112.1z"/>
		</g>
		<g>
			<path class="st1" d="M828.2,1450.9c-17.5-4.5-26.2,10.6-46.1,21c-29.2,15.2-30.2,35.3-17.2,43.2c13,7.9,29.6-4.6,44.8,0.1
				c0,0,0.1,0,0.1,0c0,0,0.1,0,0.1,0c15.4,4.1,22.9,23.4,38.2,23.5c15.3,0.1,25-17.5,8.2-45.8
				C844.9,1473.8,845.5,1456.3,828.2,1450.9z"/>
			<path class="st1" d="M789.9,1426.1c5.9,16,2.3,32-8,35.8c-10.3,3.8-23.4-6.1-29.2-22.1c-5.9-16-2.3-32,8-35.8
				C770.9,1400.2,784,1410.1,789.9,1426.1z"/>
			<path class="st1" d="M873.9,1450c-13.4,10.5-18.8,26-12,34.6c6.8,8.6,23.1,7.1,36.5-3.4c13.4-10.5,18.8-26,12-34.6
				C903.6,1438,887.3,1439.5,873.9,1450z"/>
			<path class="st1" d="M836.9,1403.4c-1.8,17.8-12.6,31.4-24.1,30.2c-11.5-1.2-19.4-16.6-17.6-34.4c1.8-17.8,12.6-31.4,24.1-30.2
				C830.8,1370.2,838.7,1385.6,836.9,1403.4z"/>
			<path class="st1" d="M845.9,1406c-7.9,16.1-5.8,33.3,4.6,38.4c10.4,5.1,25.2-3.9,33.1-20c7.9-16.1,5.8-33.3-4.6-38.4
				C868.5,1380.9,853.7,1389.9,845.9,1406z"/>
		</g>
		<g>
			<path class="st1" d="M2289.7,472.9c-14.3-9.4-26.7,1.4-47.7,4.5c-30.8,4.5-37.9,22.2-28.7,33.3c9.2,11.1,27.8,5,40,13.9
				c0,0,0.1,0.1,0.1,0.1c0,0,0.1,0.1,0.1,0.1c12.5,8.4,13.2,28,26.8,32.8c13.6,4.8,27.7-7.9,21.4-38.4
				C2297.5,498.5,2303.4,483.1,2289.7,472.9z"/>
			<path class="st1" d="M2263.1,438.9c0.3,16.1-7.8,29.3-18.2,29.4c-10.4,0.2-19-12.7-19.3-28.7c-0.3-16.1,7.8-29.3,18.2-29.4
				C2254.2,410,2262.8,422.8,2263.1,438.9z"/>
			<path class="st1" d="M2330.8,486.2c-15.2,5.2-24.8,17.4-21.4,27.2c3.4,9.8,18.4,13.5,33.6,8.2c15.2-5.2,24.8-17.4,21.4-27.2
				C2361,484.6,2346,480.9,2330.8,486.2z"/>
			<path class="st1" d="M2312,433.2c-7.1,15.4-20.9,24.1-30.8,19.5c-9.9-4.6-12.2-20.8-5.1-36.2c7.1-15.4,20.9-24.1,30.8-19.5
				C2316.9,401.6,2319.2,417.8,2312,433.2z"/>
			<path class="st1" d="M2319.3,438.3c-12,12-15.5,28-7.7,35.7c7.7,7.7,23.7,4.3,35.7-7.7c12-12,15.5-28,7.7-35.7
				C2347.3,422.9,2331.3,426.3,2319.3,438.3z"/>
		</g>
		<g>
			<path class="st1" d="M2404,1239.7c-13.6-3.9-20.7,7.8-36.5,15.5c-23.2,11.3-24.3,27-14.3,33.4c10,6.5,23.2-3,35,1
				c0,0,0.1,0,0.1,0c0,0,0.1,0,0.1,0c12,3.5,17.4,18.8,29.3,19.2c11.9,0.4,19.9-13.2,7.3-35.6
				C2416.6,1257.9,2417.4,1244.3,2404,1239.7z"/>
			<path class="st1" d="M2374.6,1219.5c4.3,12.6,1.1,25-7,27.8c-8.1,2.7-18.2-5.3-22.4-17.9c-4.3-12.6-1.1-25,7-27.8
				C2360.3,1198.9,2370.3,1206.9,2374.6,1219.5z"/>
			<path class="st1" d="M2439.7,1239.9c-10.7,7.9-15.2,19.9-10.1,26.8c5.1,6.9,17.9,6,28.6-1.9c10.7-7.9,15.2-19.9,10.1-26.8
				C2463.2,1231.1,2450.4,1231.9,2439.7,1239.9z"/>
			<path class="st1" d="M2411.8,1202.7c-1.8,13.9-10.5,24.3-19.5,23.1c-9-1.1-14.8-13.4-13-27.3c1.8-13.9,10.5-24.3,19.5-23.1
				C2407.7,1176.6,2413.5,1188.8,2411.8,1202.7z"/>
			<path class="st1" d="M2418.8,1204.9c-6.5,12.4-5.2,25.9,2.8,30.1s19.8-2.5,26.2-15c6.5-12.4,5.2-25.9-2.8-30.1
				S2425.2,1192.5,2418.8,1204.9z"/>
		</g>
		<g>
			<path class="st1" d="M125.2,563.9c-19,0.4-23.6,18.2-40.9,34.3c-25.4,23.6-20.7,44.3-5.3,48.7c15.4,4.4,28.7-13,45.5-12.5
				c0.1,0,0.1,0,0.2,0c0.1,0,0.1,0,0.2,0c16.8-0.2,29.8,17.3,45.3,13.2c15.5-4.2,20.5-24.8-4.6-48.8
				C148.5,582.4,144.3,564.5,125.2,563.9z"/>
			<path class="st1" d="M79.4,549.4c10.4,14.6,11.3,31.8,1.9,38.5c-9.4,6.7-25.4,0.4-35.9-14.2c-10.4-14.6-11.3-31.8-1.9-38.5
				C52.9,528.5,68.9,534.9,79.4,549.4z"/>
			
				<ellipse transform="matrix(0.5939 -0.8046 0.8046 0.5939 -376.1631 379.7734)" class="st1" cx="188.1" cy="562.5" rx="32.4" ry="20.9"/>
			<path class="st1" d="M120.6,513.3c3.2,18.6-4,35.4-16,37.4c-12,2.1-24.3-11.4-27.5-30c-3.2-18.6,4-35.4,16-37.4
				C105.2,481.2,117.5,494.7,120.6,513.3z"/>
			<path class="st1" d="M130.5,513.4c-3.4,18.6,3.5,35.4,15.4,37.6c12,2.2,24.5-11,27.9-29.6c3.4-18.6-3.5-35.4-15.4-37.6
				C146.4,481.5,133.9,494.8,130.5,513.4z"/>
		</g>
		<g>
			<path class="st1" d="M1424.2,651.1c-9.6,7.9-4.7,18.8-7.1,34c-3.4,22.3,7.3,31,16.9,27c9.7-4,9.4-18.2,18.2-24.7
				c0,0,0.1,0,0.1-0.1c0,0,0.1,0,0.1-0.1c8.5-6.9,22.2-3.2,28.5-11.6c6.2-8.4,0.5-20.9-22-23
				C1443.5,651.2,1434.2,643.8,1424.2,651.1z"/>
			<path class="st1" d="M1394.9,662.3c11.2,3.2,18.6,11.7,16.5,18.9c-2.1,7.2-12.8,10.4-24,7.2c-11.2-3.2-18.6-11.7-16.5-18.9
				C1373,662.3,1383.7,659,1394.9,662.3z"/>
			<path class="st1" d="M1442.1,625.5c0.4,11.6,6.8,20.9,14.3,20.6c7.5-0.2,13.3-9.9,12.9-21.5c-0.4-11.6-6.8-20.9-14.3-20.6
				C1447.5,604.3,1441.8,613.9,1442.1,625.5z"/>
			<path class="st1" d="M1401.4,627.2c9.1,8.2,12.2,19.7,6.9,25.5c-5.3,5.9-17,4-26.1-4.2c-9.1-8.2-12.2-19.7-6.9-25.5
				C1380.6,617,1392.3,618.9,1401.4,627.2z"/>
			<path class="st1" d="M1406.5,623.2c5.7,10.9,16,16.7,23.1,13c7-3.7,8-15.5,2.3-26.4c-5.7-10.9-16-16.7-23.1-13
				C1401.8,600.5,1400.8,612.3,1406.5,623.2z"/>
		</g>
		<g>
			<path class="st1" d="M544.1,589.4c-12.3,4.5-11.3,17-18.9,31.3c-11.2,21-3.6,33.3,7.4,32.8c11-0.6,15.8-14.8,26.7-18.2
				c0,0,0.1,0,0.1,0c0,0,0.1,0,0.1,0c10.8-3.9,23.2,4.6,32.3-1.5c9.1-6.1,7.8-20.6-13.8-30.6C563.3,596.2,556.6,585.6,544.1,589.4z"
				/>
			<path class="st1" d="M511.1,590.2c10,7.1,14.4,18.1,9.8,24.6c-4.6,6.4-16.4,5.9-26.4-1.2c-10-7.1-14.4-18.1-9.8-24.6
				C489.3,582.5,501.1,583.1,511.1,590.2z"/>
			<path class="st1" d="M570.9,570.2c-3.7,11.7-0.6,23.1,7,25.5c7.5,2.4,16.7-5.2,20.4-16.9c3.7-11.7,0.6-23.1-7-25.5
				C583.7,551,574.6,558.5,570.9,570.2z"/>
			<path class="st1" d="M529.9,557.6c6.2,11.4,5.3,23.8-2.1,27.8c-7.3,4-18.3-2-24.5-13.4c-6.2-11.4-5.3-23.8,2.1-27.8
				C512.7,540.3,523.7,546.2,529.9,557.6z"/>
			<path class="st1" d="M536.3,555.5c1.9,12.8,10.1,22.2,18.4,21c8.3-1.2,13.4-12.6,11.5-25.4c-1.9-12.8-10.1-22.2-18.4-21
				C539.6,531.3,534.4,542.7,536.3,555.5z"/>
		</g>
		<g>
			<path class="st1" d="M1822.1,444c-5.6-9-15.5-6.1-28.2-9.8c-18.6-5.4-27.2,2.8-24.9,11.4c2.3,8.7,14.5,10.1,19.1,18.3
				c0,0,0,0.1,0,0.1c0,0,0,0,0,0.1c4.9,8,0.3,19.3,6.7,25.5c6.5,6.2,17.8,2.7,22.1-16.2C1819.9,460.5,1827.3,453.3,1822.1,444z"/>
			<path class="st1" d="M1815.9,417.8c-4,9.2-12,14.6-18,12c-5.9-2.6-7.5-12.1-3.5-21.3c4-9.2,12-14.6,18-12
				C1818.3,399.1,1819.9,408.6,1815.9,417.8z"/>
			<path class="st1" d="M1842,462.1c-10-1-18.6,3.5-19.2,9.9c-0.6,6.4,7,12.4,16.9,13.4c10,1,18.6-3.5,19.2-9.9
				C1859.5,469.1,1851.9,463.1,1842,462.1z"/>
			<path class="st1" d="M1845.1,427.3c-8,6.9-18.1,8.3-22.6,3.1c-4.4-5.2-1.5-14.9,6.5-21.8c8-6.9,18.1-8.3,22.6-3.1
				S1853.1,420.4,1845.1,427.3z"/>
			<path class="st1" d="M1847.9,432c-9.9,3.7-16,11.8-13.6,18.2c2.4,6.4,12.3,8.6,22.2,4.9c9.9-3.7,16-11.8,13.6-18.2
				C1867.7,430.5,1857.8,428.3,1847.9,432z"/>
		</g>
		<g>
			<path class="st1" d="M2215.8,113.8c-11.1,1-13,11.6-22.4,21.7c-13.8,14.8-10.2,26.7-1,28.6c9.2,1.9,16.2-8.8,26-9.2
				c0,0,0.1,0,0.1,0c0,0,0.1,0,0.1,0c9.8-0.8,18.1,8.9,27,5.8c8.9-3.1,10.9-15.3-4.7-28.2C2230.2,123.7,2226.9,113.4,2215.8,113.8z"
				/>
			<path class="st1" d="M2188.5,107.4c6.7,8,7.9,18.1,2.7,22.4c-5.2,4.3-14.8,1.3-21.5-6.8c-6.7-8-7.9-18.1-2.7-22.4
				C2172.1,96.3,2181.8,99.3,2188.5,107.4z"/>
			<path class="st1" d="M2242.1,103.9c-5.6,8.8-5.5,18.9,0.2,22.5c5.7,3.6,14.9-0.6,20.5-9.5c5.6-8.8,5.5-18.9-0.2-22.5
				C2256.8,90.8,2247.7,95,2242.1,103.9z"/>
			<path class="st1" d="M2211,84.6c2.6,10.7-0.8,20.8-7.7,22.5c-6.9,1.7-14.6-5.6-17.3-16.3c-2.6-10.7,0.8-20.8,7.7-22.5
				C2200.6,66.5,2208.4,73.8,2211,84.6z"/>
			
				<ellipse transform="matrix(0.1114 -0.9938 0.9938 0.1114 1896.1772 2291.7786)" class="st1" cx="2229.6" cy="85.6" rx="20" ry="12.9"/>
		</g>
		<g>
			<path class="st1" d="M630.4,1010c-12.5-10.1-25.1-1-45,0c-29.3,1.5-37.4,17.4-29.8,28.7c7.6,11.2,25.6,7.2,36.3,16.6
				c0,0,0.1,0.1,0.1,0.1c0,0,0.1,0.1,0.1,0.1c11,9,9.9,27.4,22.2,33.1c12.3,5.7,26.7-4.9,23.5-34.1
				C635.5,1034.6,642.4,1020.7,630.4,1010z"/>
			<path class="st1" d="M608.6,975.8c-1.1,15.1-9.9,26.7-19.7,26c-9.7-0.7-16.7-13.5-15.5-28.6c1.1-15.1,9.9-26.7,19.7-26
				C602.8,947.9,609.7,960.7,608.6,975.8z"/>
			<path class="st1" d="M667.7,1026c-14.7,3.6-24.7,14.1-22.4,23.6c2.3,9.5,16.1,14.3,30.8,10.7c14.7-3.6,24.7-14.1,22.4-23.6
				C696.2,1027.3,682.4,1022.5,667.7,1026z"/>
			<path class="st1" d="M654.9,974.8c-8,13.8-21.7,20.7-30.6,15.6c-8.9-5.2-9.6-20.5-1.5-34.3c8-13.8,21.7-20.7,30.6-15.6
				S662.9,961,654.9,974.8z"/>
			<path class="st1" d="M661.3,980.2c-12.3,10.2-17,24.8-10.4,32.7c6.5,7.9,21.8,6.1,34.1-4c12.3-10.2,17-24.8,10.4-32.7
				C688.8,968.2,673.5,970,661.3,980.2z"/>
		</g>
		<g>
			<path class="st1" d="M2708,1010.5c-14-1.6-19,11-33.2,21c-20.9,14.8-19.5,30.3-8.6,35c10.8,4.7,22.3-6.6,34.5-4.7
				c0,0,0.1,0,0.1,0c0,0,0.1,0,0.1,0c12.3,1.5,20.1,15.6,31.8,14.1c11.7-1.5,17.4-16.1,1.4-36.1
				C2723.2,1026.3,2721.9,1012.8,2708,1010.5z"/>
			<path class="st1" d="M2675.9,995.5c6.2,11.7,5.1,24.3-2.4,28.3c-7.5,4-18.6-2.2-24.8-13.9c-6.2-11.7-5.1-24.3,2.4-28.3
				C2658.6,977.6,2669.7,983.8,2675.9,995.5z"/>
			<path class="st1" d="M2743,1005c-9.2,9.5-11.7,22-5.6,27.9c6.1,5.9,18.5,3,27.7-6.4c9.2-9.5,11.7-22,5.6-27.9
				C2764.6,992.6,2752.2,995.5,2743,1005z"/>
			<path class="st1" d="M2709.6,973.1c0.5,13.9-6.4,25.4-15.3,25.8c-9,0.3-16.6-10.7-17.1-24.6c-0.5-13.9,6.4-25.4,15.3-25.8
				C2701.5,948.2,2709.2,959.2,2709.6,973.1z"/>
			<path class="st1" d="M2716.8,974.1c-4.3,13.2-0.9,26.2,7.6,29c8.5,2.8,19-5.7,23.3-18.9c4.3-13.2,0.9-26.2-7.6-29
				C2731.6,952.4,2721.2,960.9,2716.8,974.1z"/>
		</g>
		<g>
			<path class="st1" d="M1755.1,100.9c-6.6,14,4.7,23.8,10.2,42.2c8,27.1,24.8,31.2,33.6,21.5c8.8-9.7,1-25.6,7.4-37.7
				c0,0,0-0.1,0.1-0.1c0,0,0-0.1,0.1-0.1c5.9-12.3,23.5-15.5,26-28.3c2.6-12.8-10.6-23.9-37.2-14.3
				C1777.1,90.6,1762.5,87.2,1755.1,100.9z"/>
			<path class="st1" d="M1728,129.1c14.4-2.3,27.3,3.3,28.8,12.6c1.5,9.3-9,18.7-23.3,21c-14.4,2.3-27.3-3.3-28.8-12.6
				C1703.1,140.8,1713.6,131.4,1728,129.1z"/>
			<path class="st1" d="M1761.8,62.3c6.6,13,18.8,20,27.2,15.7c8.4-4.3,9.8-18.3,3.1-31.3c-6.6-13-18.8-20-27.2-15.7
				C1756.5,35.3,1755.1,49.3,1761.8,62.3z"/>
			<path class="st1" d="M1716.6,85.9c14.7,4.4,24.3,15.7,21.5,25.2c-2.9,9.5-17.1,13.6-31.8,9.2c-14.7-4.4-24.3-15.7-21.5-25.2
				C1687.6,85.6,1701.8,81.5,1716.6,85.9z"/>
			<path class="st1" d="M1720.2,78.7c12.3,9.2,27.1,10.3,33,2.4c6-7.9,0.8-21.8-11.5-31.1c-12.3-9.2-27.1-10.3-33-2.4
				C1702.8,55.6,1707.9,69.5,1720.2,78.7z"/>
		</g>
		<g>
			<path class="st1" d="M1690,1488.2c-11.4,5.7-9.1,17.7-14.9,32.5c-8.6,21.6,0.2,32.7,10.8,31c10.6-1.8,13.7-16.1,24-20.6
				c0,0,0.1,0,0.1,0c0,0,0.1,0,0.1,0c10.1-4.9,23,1.9,31.2-5c8.2-7,5.3-20.9-16.7-28.2C1709.4,1492.8,1701.7,1483.2,1690,1488.2z"/>
			<path class="st1" d="M1658.1,1492.6c10.5,5.8,15.9,16,12.2,22.8c-3.8,6.8-15.3,7.5-25.8,1.7c-10.5-5.8-15.9-16-12.2-22.8
				S1647.6,1486.8,1658.1,1492.6z"/>
			<path class="st1" d="M1713.9,1466.7c-2.3,11.8,2,22.5,9.6,24c7.6,1.5,15.6-6.8,17.9-18.6c2.3-11.8-2-22.5-9.6-24
				C1724.3,1446.6,1716.2,1454.9,1713.9,1466.7z"/>
			<path class="st1" d="M1672.7,1458.9c7.3,10.4,7.7,22.5,1.1,27.2c-6.7,4.7-18,0.1-25.2-10.3c-7.3-10.4-7.7-22.5-1.1-27.2
				C1654.2,1444,1665.5,1448.6,1672.7,1458.9z"/>
			<path class="st1" d="M1678.7,1456.2c3.2,12.2,12.2,20.4,20.1,18.4c7.9-2.1,11.6-13.7,8.4-25.9s-12.2-20.4-20.1-18.4
				C1679.3,1432.3,1675.5,1443.9,1678.7,1456.2z"/>
		</g>
		<g>
			<path class="st1" d="M1246.5,1472.7c-3.6-10.6-14.4-10-26.5-16.8c-17.8-10-28.5-3.7-28.3,5.7c0.3,9.4,12.4,13.8,15.1,23.3
				c0,0,0,0.1,0,0.1c0,0,0,0.1,0,0.1c3.1,9.4-4.4,19.8,0.7,27.8c5.1,8,17.5,7.1,26.5-11.3
				C1240.3,1489.1,1249.5,1483.5,1246.5,1472.7z"/>
			<path class="st1" d="M1246.4,1444.4c-6.3,8.5-15.8,12-21.3,7.9c-5.4-4.1-4.8-14.2,1.5-22.7c6.3-8.5,15.8-12,21.3-7.9
				C1253.4,1425.8,1252.7,1435.9,1246.4,1444.4z"/>
			<path class="st1" d="M1262.5,1496.1c-10-3.4-19.8-0.9-22,5.5c-2.2,6.4,4.1,14.4,14.1,17.8c10,3.4,19.8,0.9,22-5.5
				C1278.8,1507.4,1272.4,1499.4,1262.5,1496.1z"/>
			<path class="st1" d="M1274.1,1461.1c-9.9,5.1-20.5,4.1-23.8-2.3c-3.3-6.4,2-15.7,11.9-20.8c9.9-5.1,20.5-4.1,23.8,2.3
				C1289.3,1446.7,1283.9,1456,1274.1,1461.1z"/>
			<path class="st1" d="M1275.8,1466.6c-11,1.4-19.2,8.3-18.4,15.4c0.9,7.1,10.6,11.8,21.6,10.4c11-1.4,19.2-8.3,18.4-15.4
				C1296.5,1469.9,1286.8,1465.2,1275.8,1466.6z"/>
		</g>
		<g>
			<path class="st1" d="M989.5,594.2c-17-7.3-28.2,6.6-50,13.9c-32,10.7-36.2,30.9-24.3,41c11.9,10.1,30.6,0.1,45.3,7.2
				c0,0,0.1,0,0.1,0.1c0,0,0.1,0,0.1,0.1c14.9,6.6,19.4,27.3,34.8,29.9c15.4,2.5,28.1-13.7,15.6-45
				C1002.7,620,1006.1,602.5,989.5,594.2z"/>
			<path class="st1" d="M954.7,563c3.4,17.1-2.8,32.7-13.8,34.9c-11,2.2-22.7-9.9-26-27c-3.4-17.1,2.8-32.7,13.8-34.9
				C939.7,533.8,951.3,545.9,954.7,563z"/>
			<path class="st1" d="M1035.8,600.6c-15.2,8.5-23.1,23.3-17.7,33.1c5.5,9.8,22.2,10.9,37.4,2.4c15.2-8.5,23.1-23.3,17.7-33.1
				C1067.8,593.2,1051,592.1,1035.8,600.6z"/>
			<path class="st1" d="M1005.8,547.6c-4.7,17.8-17.7,29.7-29.2,26.7c-11.4-3-16.9-19.9-12.3-37.6C969,519,982.1,507,993.5,510
				C1005,513,1010.5,529.9,1005.8,547.6z"/>
			<path class="st1" d="M1014.5,551.7c-10.5,15-11.2,32.7-1.5,39.5c9.7,6.8,26.1,0.1,36.6-15c10.5-15,11.2-32.7,1.5-39.5
				C1041.4,529.9,1025,536.6,1014.5,551.7z"/>
		</g>
		<g>
			<path class="st1" d="M81,137.8c-10.3-5.9-18.4,2.2-32.8,5.2c-21.1,4.5-25.2,17-18.4,24.3c6.8,7.3,19.5,2.3,28.3,7.9
				c0,0,0.1,0,0.1,0.1c0,0,0.1,0,0.1,0c9,5.3,10.4,18.8,20,21.5c9.6,2.7,18.9-6.7,13.1-27.5C87.6,155.1,91,144.2,81,137.8z"/>
			<path class="st1" d="M61.2,115.4c0.9,11.1-4.2,20.6-11.3,21.2c-7.2,0.6-13.7-7.9-14.6-19c-0.9-11.1,4.2-20.6,11.3-21.2
				C53.7,95.8,60.3,104.3,61.2,115.4z"/>
			<path class="st1" d="M110,145.2c-10.3,4.3-16.4,13.1-13.6,19.8c2.8,6.6,13.3,8.5,23.6,4.2c10.3-4.3,16.4-13.1,13.6-19.8
				C130.9,142.8,120.3,140.9,110,145.2z"/>
			<path class="st1" d="M94.8,109.3c-4.3,11-13.4,17.6-20.5,14.9c-7.1-2.7-9.3-13.9-5.1-24.8c4.3-11,13.4-17.6,20.5-14.9
				C96.8,87.3,99,98.4,94.8,109.3z"/>
			<path class="st1" d="M100,112.5c-7.8,8.8-9.5,20-3.8,25c5.7,5,16.6,1.9,24.4-6.9c7.8-8.8,9.5-20,3.8-25
				C118.7,100.6,107.8,103.7,100,112.5z"/>
		</g>
		<g>
			<path class="st1" d="M931.1,151.8c-16,1.3-18.9,16.5-32.6,31c-20.1,21.2-15.1,38.4-1.9,41.3c13.2,2.9,23.5-12.4,37.6-12.9
				c0,0,0.1,0,0.1,0c0,0,0.1,0,0.1,0c14.1-1.1,26,13,38.9,8.7c12.8-4.3,15.9-21.9-6.4-40.8C951.7,166.1,947.2,151.3,931.1,151.8z"/>
			<path class="st1" d="M891.8,142.1c9.5,11.7,11.2,26.2,3.6,32.3c-7.5,6.2-21.4,1.7-30.9-10c-9.5-11.7-11.2-26.2-3.6-32.3
				C868.4,125.9,882.2,130.4,891.8,142.1z"/>
			<path class="st1" d="M969.2,137.7c-8.2,12.7-8.2,27.3,0,32.5c8.2,5.3,21.4-0.7,29.6-13.4c8.2-12.7,8.2-27.3,0-32.5
				C990.6,119,977.4,125,969.2,137.7z"/>
			<path class="st1" d="M924.6,109.4c3.7,15.5-1.5,30-11.5,32.3c-10,2.4-21.1-8.3-24.7-23.8c-3.7-15.5,1.5-30,11.5-32.3
				C909.9,83.3,920.9,94,924.6,109.4z"/>
			<path class="st1" d="M932.9,109c-1.9,15.8,4.8,29.6,15,30.9c10.2,1.2,20-10.6,21.9-26.4c1.9-15.8-4.8-29.6-15-30.9
				C944.6,81.4,934.8,93.2,932.9,109z"/>
		</g>
		<g>
			<path class="st1" d="M1983.4,1179.5c-12,4.3-11.1,16.6-18.6,30.5c-11,20.5-3.6,32.6,7.1,32c10.7-0.5,15.5-14.4,26.2-17.7
				c0,0,0.1,0,0.1,0c0,0,0.1,0,0.1,0c10.6-3.7,22.7,4.6,31.6-1.4c8.9-6,7.7-20.1-13.4-30C2002.2,1186.3,1995.6,1175.8,1983.4,1179.5
				z"/>
			
				<ellipse transform="matrix(0.5829 -0.8125 0.8125 0.5829 -157.8056 2075.8057)" class="st1" cx="1943" cy="1191.6" rx="14" ry="21.7"/>
			<path class="st1" d="M2009.7,1160.9c-3.7,11.4-0.6,22.6,6.7,25s16.3-5,20-16.4c3.7-11.4,0.6-22.6-6.7-25
				C2022.3,1142.1,2013.3,1149.4,2009.7,1160.9z"/>
			<path class="st1" d="M1969.6,1148.4c6,11.1,5.1,23.3-2.1,27.2c-7.2,3.9-17.9-2-23.9-13.1c-6-11.1-5.1-23.3,2.1-27.2
				C1952.9,1131.4,1963.6,1137.3,1969.6,1148.4z"/>
			<path class="st1" d="M1975.9,1146.3c1.8,12.5,9.8,21.7,17.9,20.6c8.1-1.2,13.2-12.3,11.3-24.8c-1.8-12.5-9.8-21.7-17.9-20.6
				C1979.2,1122.7,1974.1,1133.8,1975.9,1146.3z"/>
		</g>
		<g>
			<path class="st1" d="M1536.2,1082.6c-10.8,4.7-9.2,16-15.4,29.3c-9,19.6-1.4,30.3,8.5,29.2c9.9-1.1,13.4-14.2,23.2-17.9
				c0,0,0.1,0,0.1,0c0,0,0.1,0,0.1,0c9.6-4.1,21.2,2.9,29.1-3.2c7.9-6.1,5.9-19.1-14.2-26.9
				C1553.9,1087.7,1547.3,1078.5,1536.2,1082.6z"/>
			<path class="st1" d="M1506.5,1085.2c9.4,5.9,14,15.6,10.2,21.7c-3.8,6.1-14.5,6.2-23.9,0.3s-14-15.6-10.2-21.7
				C1486.3,1079.5,1497,1079.3,1506.5,1085.2z"/>
			<path class="st1" d="M1559.4,1063.8c-2.7,10.8,0.8,20.9,7.7,22.7c7,1.7,14.8-5.6,17.5-16.4c2.7-10.8-0.8-20.9-7.7-22.7
				C1569.9,1045.7,1562.1,1053.1,1559.4,1063.8z"/>
			<path class="st1" d="M1521.6,1054.7c6.2,9.9,6.1,21.2-0.3,25.3c-6.4,4-16.6-0.8-22.9-10.7c-6.2-9.9-6.1-21.2,0.3-25.3
				C1505.1,1040,1515.4,1044.8,1521.6,1054.7z"/>
			<path class="st1" d="M1527.3,1052.4c2.4,11.5,10.4,19.5,17.8,17.9c7.4-1.6,11.4-12.1,9-23.6c-2.4-11.5-10.4-19.5-17.8-17.9
				C1528.9,1030.4,1524.9,1040.9,1527.3,1052.4z"/>
		</g>
		<g>
			<path class="st1" d="M1089.3,1036.5c-17.5,1.5-20.6,18.2-35.5,34.1c-21.9,23.3-16.3,42.1-1.8,45.1c14.5,3.1,25.6-13.7,41.1-14.4
				c0,0,0.1,0,0.1,0c0,0,0.1,0,0.1,0c15.4-1.2,28.5,14.1,42.5,9.3c14-4.8,17.3-24.1-7.3-44.6
				C1111.9,1052.1,1106.9,1035.9,1089.3,1036.5z"/>
			<path class="st1" d="M1046.2,1026.1c10.5,12.7,12.4,28.6,4.1,35.3c-8.2,6.8-23.4,1.9-33.9-10.8c-10.5-12.7-12.4-28.6-4.1-35.3
				C1020.5,1008.5,1035.7,1013.4,1046.2,1026.1z"/>
			<path class="st1" d="M1130.8,1021c-8.9,13.9-8.8,29.8,0.2,35.6c9,5.7,23.5-0.9,32.3-14.8c8.9-13.9,8.8-29.8-0.2-35.6
				C1154.2,1000.4,1139.7,1007.1,1130.8,1021z"/>
			<path class="st1" d="M1081.9,990.3c4.1,16.9-1.4,32.8-12.4,35.4c-10.9,2.6-23.1-9-27.2-25.9c-4.1-16.9,1.4-32.8,12.4-35.4
				C1065.7,961.8,1077.9,973.4,1081.9,990.3z"/>
			<path class="st1" d="M1091,989.7c-2,17.3,5.4,32.4,16.6,33.7c11.2,1.3,21.8-11.7,23.8-29c2-17.3-5.4-32.4-16.6-33.7
				C1103.7,959.5,1093,972.4,1091,989.7z"/>
		</g>
		<g>
			<path class="st1" d="M2177.4,1527.4c-9.6-1.4-13.3,7.1-23.4,13.7c-14.7,9.7-14.1,20.5-6.7,23.9s15.5-4.1,23.9-2.5
				c0,0,0.1,0,0.1,0c0,0,0.1,0,0.1,0c8.4,1.3,13.5,11.2,21.6,10.4c8.1-0.8,12.3-10.7,1.8-24.8
				C2187.6,1538.7,2186.9,1529.3,2177.4,1527.4z"/>
			<path class="st1" d="M2155.7,1516.4c4,8.2,3,16.9-2.3,19.5c-5.3,2.6-12.8-1.9-16.8-10.1c-4-8.2-3-16.9,2.3-19.5
				C2144.1,1503.7,2151.7,1508.2,2155.7,1516.4z"/>
			<path class="st1" d="M2201.7,1524.4c-6.5,6.3-8.5,14.9-4.4,19.1c4.1,4.2,12.7,2.5,19.2-3.8c6.5-6.3,8.5-14.9,4.4-19.1
				C2216.8,1516.3,2208.2,1518.1,2201.7,1524.4z"/>
			<path class="st1" d="M2179.4,1501.7c0,9.6-5,17.4-11.1,17.4c-6.2,0-11.2-7.7-11.3-17.3c0-9.6,5-17.4,11.1-17.4
				C2174.3,1484.4,2179.3,1492.1,2179.4,1501.7z"/>
			<path class="st1" d="M2184.3,1502.6c-3.3,9-1.2,18,4.6,20.2c5.8,2.1,13.2-3.5,16.5-12.5c3.3-9,1.2-18-4.6-20.2
				C2195,1488,2187.6,1493.6,2184.3,1502.6z"/>
		</g>
		<g>
			<path class="st1" d="M513.1,151.6c-9.2-11.1-21.9-5.3-39.6-7.9c-26-3.8-35.9,8.7-31.2,19.9c4.7,11.2,21.2,10.8,28.9,20.9
				c0,0,0,0.1,0.1,0.1c0,0,0.1,0.1,0.1,0.1c8.1,9.8,3.9,25.8,13.7,33c9.8,7.2,24.3,0.4,26.6-25.8
				C513.2,174.1,521.8,163.1,513.1,151.6z"/>
			<path class="st1" d="M499.9,117.7c-3.7,13-13.4,21.7-21.8,19.3c-8.4-2.4-12.3-14.8-8.6-27.9c3.7-13,13.4-21.7,21.8-19.3
				C499.7,92.2,503.6,104.7,499.9,117.7z"/>
			<path class="st1" d="M543,172.2c-13.5,0.5-24.2,8-23.9,16.8c0.3,8.7,11.6,15.4,25.1,14.8c13.5-0.5,24.2-8,23.9-16.8
				C567.8,178.3,556.6,171.7,543,172.2z"/>
			<path class="st1" d="M540.8,125c-9.5,10.7-22.7,14.4-29.6,8.3c-6.9-6.1-4.8-19.7,4.7-30.4c9.5-10.7,22.7-14.4,29.6-8.3
				C552.4,100.7,550.3,114.3,540.8,125z"/>
			<path class="st1" d="M545.4,130.8c-12.6,6.8-19.3,18.8-14.9,26.9c4.4,8.1,18.1,9.2,30.7,2.5c12.6-6.8,19.3-18.8,14.9-26.9
				C571.7,125.2,558,124.1,545.4,130.8z"/>
		</g>
		<g>
			<path class="st1" d="M123,993.3c-8.7-4.7-15.2,2.1-27.1,5c-17.5,4.1-20.6,14.6-14.8,20.5c5.8,5.9,16.2,1.5,23.7,6c0,0,0,0,0.1,0
				c0,0,0,0,0.1,0c7.6,4.2,9,15.4,17,17.5c8,2.1,15.5-5.9,10.4-23.1C128.7,1007.6,131.3,998.5,123,993.3z"/>
			<path class="st1" d="M106,975.1c1,9.2-3.1,17.2-9,17.8c-5.9,0.6-11.5-6.3-12.5-15.5c-1-9.2,3.1-17.2,9-17.8
				C99.5,958.9,105.1,965.9,106,975.1z"/>
			<path class="st1" d="M147.2,998.9c-8.5,3.8-13.4,11.2-10.9,16.7c2.4,5.5,11.2,6.8,19.7,3.1c8.5-3.8,13.4-11.2,10.9-16.7
				C164.5,996.5,155.7,995.1,147.2,998.9z"/>
			<path class="st1" d="M133.8,969.4c-3.3,9.2-10.8,14.9-16.7,12.7c-5.9-2.1-8-11.3-4.7-20.5c3.3-9.2,10.8-14.9,16.7-12.7
				C135,951,137.2,960.2,133.8,969.4z"/>
			<path class="st1" d="M138.2,972c-6.3,7.5-7.5,16.8-2.7,20.9c4.8,4.1,13.8,1.3,20.1-6.2c6.3-7.5,7.5-16.8,2.7-20.9
				C153.5,961.7,144.5,964.5,138.2,972z"/>
		</g>
		<g>
			<path class="st1" d="M2713.4,573.4c-5.6,9.5,1.8,17.2,4.4,30.7c3.9,19.8,15.6,23.8,22.5,17.5c6.9-6.3,2.4-18.2,7.7-26.4
				c0,0,0-0.1,0.1-0.1c0,0,0-0.1,0-0.1c5-8.4,17.7-9.5,20.4-18.4c2.7-8.9-6-17.7-25.5-12.6C2729.7,567.5,2719.6,564.1,2713.4,573.4z
				"/>
			<path class="st1" d="M2692.3,591.7c10.4-0.7,19.2,4.1,19.6,10.8c0.5,6.7-7.6,12.7-18,13.4c-10.4,0.7-19.2-4.1-19.6-10.8
				C2673.8,598.4,2681.9,592.4,2692.3,591.7z"/>
			<path class="st1" d="M2720.7,546.4c3.9,9.7,12.1,15.5,18.3,13c6.2-2.5,8.1-12.4,4.3-22c-3.9-9.7-12.1-15.5-18.3-13
				C2718.7,526.8,2716.8,536.7,2720.7,546.4z"/>
			<path class="st1" d="M2687,560.2c10.2,4.1,16.3,12.8,13.6,19.3c-2.7,6.6-13.1,8.5-23.3,4.4s-16.3-12.8-13.6-19.3
				C2666.4,558,2676.8,556,2687,560.2z"/>
			<path class="st1" d="M2690.1,555.3c8.1,7.4,18.6,9.1,23.3,3.9c4.8-5.2,2-15.5-6.1-22.9c-8.1-7.4-18.6-9.1-23.3-3.9
				C2679.2,537.7,2681.9,547.9,2690.1,555.3z"/>
		</g>
		<g>
			<path class="st1" d="M478,1426.1c-6.8,13.9,4.5,23.8,9.7,42.3c7.7,27.1,24.4,31.4,33.3,21.8c8.9-9.6,1.2-25.6,7.7-37.6
				c0,0,0-0.1,0.1-0.1c0,0,0-0.1,0.1-0.1c6-12.2,23.6-15.2,26.3-28c2.7-12.8-10.4-24-37-14.7C500,1416.1,485.5,1412.6,478,1426.1z"
				/>
			<path class="st1" d="M450.6,1454c14.4-2.2,27.2,3.6,28.6,12.8c1.4,9.3-9.1,18.6-23.5,20.8c-14.4,2.2-27.2-3.6-28.6-12.8
				C425.7,1465.5,436.2,1456.2,450.6,1454z"/>
			<path class="st1" d="M485,1387.7c6.5,13,18.6,20.2,27,16c8.4-4.2,9.9-18.2,3.4-31.2c-6.5-13-18.6-20.2-27-16
				C480,1360.7,478.5,1374.7,485,1387.7z"/>
			<path class="st1" d="M439.7,1410.8c14.7,4.6,24.2,15.9,21.2,25.4s-17.2,13.4-31.9,8.8c-14.7-4.6-24.2-15.9-21.2-25.4
				C410.7,1410.2,425,1406.2,439.7,1410.8z"/>
			<path class="st1" d="M443.4,1403.7c12.2,9.3,26.9,10.6,33,2.7c6-7.9,1-21.8-11.2-31.1c-12.2-9.3-26.9-10.6-33-2.7
				C426.2,1380.4,431.2,1394.3,443.4,1403.7z"/>
		</g>
		<g>
			<path class="st1" d="M2341.3,855.6c-12.1-9.4-23.9-0.6-42.9,0.7c-27.8,1.9-35.4,17.2-27.9,27.8c7.4,10.6,24.5,6.4,34.8,15.2
				c0,0,0.1,0.1,0.1,0.1c0,0,0.1,0.1,0.1,0.1c10.6,8.4,9.9,25.9,21.7,31.2c11.8,5.2,25.3-5.1,21.8-32.8
				C2346.5,878.9,2352.9,865.6,2341.3,855.6z"/>
			<path class="st1" d="M2319.9,823.3c-0.8,14.4-9,25.6-18.3,25.1c-9.3-0.5-16.1-12.6-15.3-27c0.8-14.4,9-25.6,18.3-25.1
				S2320.8,808.9,2319.9,823.3z"/>
			<path class="st1" d="M2377.1,870.3c-13.9,3.6-23.4,13.9-21,22.8c2.3,9,15.5,13.3,29.5,9.7c13.9-3.6,23.4-13.9,21-22.8
				C2404.2,871,2391,866.6,2377.1,870.3z"/>
			<path class="st1" d="M2364.1,821.6c-7.4,13.3-20.4,20.1-28.9,15.3c-8.5-4.8-9.4-19.4-2-32.7c7.4-13.3,20.4-20.1,28.9-15.3
				C2370.6,793.7,2371.5,808.4,2364.1,821.6z"/>
			<path class="st1" d="M2370.2,826.7c-11.6,9.9-15.8,23.9-9.4,31.4c6.4,7.4,20.9,5.5,32.4-4.4c11.6-9.9,15.8-23.9,9.4-31.4
				C2396.3,814.8,2381.7,816.8,2370.2,826.7z"/>
		</g>
		<g>
			<path class="st1" d="M1337.5,176.5c-13.1,15.2-2.3,31.2-1.8,56.1c0.7,36.5,20.2,47.3,34.5,38.3c14.3-9,10-31.6,22.1-44.5
				c0,0,0.1-0.1,0.1-0.1c0,0,0.1-0.1,0.1-0.1c11.6-13.3,34.5-11.3,42.1-26.3c7.6-15.1-5.1-33.4-41.5-30.6
				C1368.3,171.2,1351.3,162,1337.5,176.5z"/>
			<path class="st1" d="M1294,202.4c18.7,2,32.9,13.5,31.6,25.5c-1.3,12.1-17.6,20.2-36.3,18.2c-18.7-2-32.9-13.5-31.6-25.5
				C1259,208.5,1275.3,200.3,1294,202.4z"/>
			<path class="st1" d="M1359,130.7c3.8,18.4,16.6,31.4,28.5,28.9c11.9-2.5,18.4-19.4,14.6-37.9c-3.8-18.4-16.6-31.4-28.5-28.9
				S1355.1,112.2,1359,130.7z"/>
			<path class="st1" d="M1294.6,144.6c16.8,10.6,25,27.9,18.2,38.8c-6.8,10.9-26,11.1-42.8,0.5c-16.8-10.6-25-27.9-18.2-38.8
				C1258.6,134.3,1277.7,134.1,1294.6,144.6z"/>
			<path class="st1" d="M1301.6,136.9c12.2,15.7,30.2,22.1,40.4,14.3c10.1-7.8,8.5-26.9-3.7-42.7c-12.2-15.7-30.2-22.1-40.4-14.3
				C1287.8,102.1,1289.4,121.2,1301.6,136.9z"/>
		</g>
	</g>
</g>
</svg>
